# xmcd
#
# Track frame offsets:
#	151
#	14649
#	30435
#	41320
#	54439
#	76675
#	89244
#	102696
#	114387
#	132663
#	150984
#	167914
#	185460
#	197133
#	210721
#	221997
#	227787
#
# Disc length: 4180 seconds
#
# Revision: 1
# Processed by: cddbd v1.5.1PL2 Copyright (c) Steve Scherf et al.
# Submitted via: audiograbber 1.83.01
#
DISCID=ef105211
DTITLE=Various Artist - #22
DYEAR=1900
DGENRE=
TTITLE0=Wright, Roland - I don't stagger through those swinging doors no more
TTITLE1=Sivley, Brenda - Sailing with Jesus
TTITLE2=Marksmen - Glory cloud
TTITLE3=Robbins, Kenny - Covered in blood
TTITLE4=Caracofe, Greg - I've just seen the Rock of Ages
TTITLE5=Woodall, Cheryl - Well, I'm goin' down the highway
TTITLE6=Flynn, Carol - America
TTITLE7=Sivley, Charles - Hallelujah time
TTITLE8=Lemme, Lorrie Halyard - God has a miracle
TTITLE9=Keith and Holly - Wrap me in your arms of love
TTITLE10=Jenkins, Jonathan - Pardon me
TTITLE11=Baber, Kyle - No wonder Calvary was so high
TTITLE12=Wall, Charles - Better get right with God
TTITLE13=Green, Linda and Sandra-Lee Burlile - I long to see Jesus
TTITLE14=Johnson, David - Mama's bible
TTITLE15=PSA
TTITLE16=PSA
EXTD=
EXTT0=
EXTT1=
EXTT2=
EXTT3=
EXTT4=
EXTT5=
EXTT6=
EXTT7=
EXTT8=
EXTT9=
EXTT10=
EXTT11=
EXTT12=
EXTT13=
EXTT14=
EXTT15=
EXTT16=
PLAYORDER=
